<?xml version="1.0"?>
<svg xmlns="http://www.w3.org/2000/svg" xmlns:xlink="http://www.w3.org/1999/xlink" version="1.1" id="Layer_1" x="0px" y="0px" viewBox="0 0 469.336 469.336" style="enable-background:new 0 0 469.336 469.336;" xml:space="preserve" width="512px" height="512px"><g><g>
	<g>
		<path d="M469.253,10.013c-0.25-4.188-2.937-7.833-6.874-9.323c-3.937-1.479-8.353-0.542-11.311,2.438    C387.097,67.107,327.896,93.315,275.674,116.44l-2.458,1.094c-2.75,1.208-4.854,3.531-5.812,6.375l-1.604,4.865    c-3.083-3.271-8.02-4.333-12.228-2.396c-29.288,13.396-60.096,29.333-86.905,54.948c-2.021,1.938-3.208,4.604-3.291,7.417    c-0.167,6.448,0.375,12.906,1.666,19.323c-1.646-1.115-3.333-2.417-5.062-3.885c-2.229-1.896-5.103-2.792-8.02-2.479    c-2.916,0.302-5.562,1.781-7.332,4.094c-53.19,68.995-58.762,155.801-59.253,166.073c-23.321,21.458-50.229,47.232-82.25,79.26    c-4.166,4.167-4.166,10.917,0,15.083c2.083,2.083,4.812,3.125,7.541,3.125s5.458-1.042,7.541-3.125    c32.478-32.486,59.667-58.505,83.117-80.034c5.428,1.297,12.882,2.492,22.599,2.492c37.599,0,106.799-17.667,203.578-114.458    C474.627,127.065,469.544,14.732,469.253,10.013z M312.419,259.128c-94.302,94.296-158.775,108.423-190.021,108.014    c42.317-37.589,71.324-59.31,98.074-79.306c38.12-28.479,74.136-55.385,139.024-120.292c4.166-4.167,4.166-10.917,0-15.083    c-4.166-4.167-10.915-4.167-15.081,0c-63.804,63.813-99.216,90.271-136.711,118.292c-26.938,20.132-56.135,41.999-98.512,79.585    c4.251-28.767,15.601-79.216,46.185-123.137c8.957,5.552,17.706,8,26.684,7.448c3.479-0.25,6.603-2.177,8.395-5.156    c1.791-2.99,2.021-6.667,0.583-9.844c-3.833-8.604-5.958-17.333-6.312-26.01c19.852-18.115,41.828-30.865,67.804-43.24    c2.5,6.781,3.687,11.885,3.708,11.958c1.042,4.667,5.083,8.063,9.874,8.292c4.687,0.313,9.124-2.74,10.644-7.271l9.395-28.25    C334,113.951,387.43,89.961,445.402,37.888C438.236,78.044,411.427,160.107,312.419,259.128z" data-original="#000000" class="active-path" data-old_color="#000000" fill="#FFFDFD"/>
	</g>
</g></g> </svg>
